<svg fill="#e43a15" xmlns="http://www.w3.org/2000/svg" version="1.1" x="0px" y="0px" viewBox="0 0 128 128"
     style="enable-background:new 0 0 128 128;" xml:space="preserve"><g><g><path d="M64,126C29.813,126,2,98.187,2,64S29.813,2,64,2s62,27.813,62,62S98.187,126,64,126z M64,6C32.019,6,6,32.019,6,64    s26.019,58,58,58s58-26.019,58-58S95.981,6,64,6z"/><g><path d="M91.792,109.112c-0.151,0-0.304-0.018-0.453-0.052c-0.537-0.125-0.998-0.466-1.275-0.942     C84.676,98.861,74.688,93.111,64,93.111s-20.676,5.75-26.063,15.007c-0.277,0.477-0.738,0.817-1.275,0.942     c-0.535,0.123-1.101,0.022-1.56-0.282c-14.656-9.733-23.406-26.028-23.406-43.59c0-28.839,23.464-52.301,52.305-52.301     s52.305,23.462,52.305,52.301c0,17.562-8.75,33.856-23.406,43.59C92.567,108.998,92.183,109.112,91.792,109.112z M64,89.111     c11.386,0,22.066,5.758,28.374,15.162c12.519-9.093,19.931-23.553,19.931-39.085c0-26.633-21.669-48.301-48.305-48.301     S15.695,38.556,15.695,65.188c0,15.532,7.412,29.992,19.931,39.085C41.934,94.869,52.614,89.111,64,89.111z"/>
  <g><g><path d="M64,27.396c-1.104,0-2-0.896-2-2v-9.812c0-1.104,0.896-2,2-2s2,0.896,2,2v9.812C66,26.5,65.104,27.396,64,27.396z"/></g>
    <g><line x1="28.922" y1="30.113" x2="35.86" y2="37.051"/>
      <path
        d="M35.86,39.051c-0.512,0-1.023-0.195-1.414-0.586l-6.938-6.938c-0.781-0.78-0.781-2.047,0-2.828s2.047-0.781,2.828,0       l6.938,6.938c0.781,0.78,0.781,2.047,0,2.828C36.884,38.855,36.372,39.051,35.86,39.051z"/></g>
    <g><line x1="14.392" y1="65.188" x2="24.204" y2="65.188"/>
      <path
        d="M24.204,67.188h-9.812c-1.104,0-2-0.896-2-2s0.896-2,2-2h9.812c1.104,0,2,0.896,2,2S25.309,67.188,24.204,67.188z"/></g>
    <g><line x1="113.608" y1="65.188" x2="103.796" y2="65.188"/>
      <path
        d="M113.607,67.188h-9.812c-1.104,0-2-0.896-2-2s0.896-2,2-2h9.812c1.104,0,2,0.896,2,2S114.712,67.188,113.607,67.188z"/></g>
    <g><line x1="99.078" y1="30.113" x2="92.14" y2="37.051"/>
      <path
        d="M92.14,39.051c-0.512,0-1.023-0.195-1.414-0.586c-0.781-0.781-0.781-2.048,0-2.828l6.938-6.938       c0.781-0.781,2.047-0.781,2.828,0s0.781,2.048,0,2.828l-6.938,6.938C93.163,38.855,92.651,39.051,92.14,39.051z"/></g></g>
  <path
    d="M62.271,75.181c-0.104,0-0.207-0.002-0.312-0.005c-5.202-0.16-9.463-4.536-9.499-9.756     c-0.026-3.684,1.977-7.042,5.227-8.765c0.007-0.003,0.015-0.007,0.021-0.011l25.219-12.996c0.813-0.453,1.833-0.291,2.459,0.398     c0.627,0.688,0.695,1.72,0.164,2.485L79.194,55.7c-3.134,4.52-5.736,9.459-8.254,14.236     C69.226,73.192,65.924,75.181,62.271,75.181z M59.549,60.195c-1.921,1.023-3.104,3.014-3.089,5.196     c0.021,3.097,2.543,5.691,5.622,5.786c2.22,0.063,4.273-1.121,5.319-3.105c2.573-4.883,5.234-9.932,8.506-14.651l1.771-2.555     L59.549,60.195z"/></g></g></g></svg>
